<?xml version="1.0" standalone="no"?>
<!DOCTYPE svg PUBLIC "-//W3C//DTD SVG 20010904//EN"
 "http://www.w3.org/TR/2001/REC-SVG-20010904/DTD/svg10.dtd">
<svg version="1.0" xmlns="http://www.w3.org/2000/svg"
 width="700.000000pt" height="700.000000pt" viewBox="0 0 700.000000 700.000000"
 preserveAspectRatio="xMidYMid meet">
<metadata>
Created by potrace 1.14, written by Peter Selinger 2001-2017
</metadata>
<g transform="translate(0.000000,700.000000) scale(0.100000,-0.100000)"
fill="#000000" stroke="none">
<path d="M188 6985 c-78 -29 -125 -72 -161 -145 l-22 -45 0 -3296 0 -3296 28
-54 c34 -64 79 -104 147 -130 49 -19 125 -19 3338 -16 l3287 2 40 22 c59 32
112 90 134 147 20 50 20 95 18 3336 l-2 3285 -21 45 c-26 58 -76 108 -134 134
l-45 21 -3285 2 c-2733 1 -3291 -1 -3322 -12z"/>
</g>
</svg>
